<svg width="396" height="768" fill="none" xmlns="http://www.w3.org/2000/svg"><path d="M388.25 561.745l-14.981-51.502 8.572-2.492 14.979 51.501-8.57 2.493zm-11.819-49.765l13.557 46.603 3.668-1.059-13.553-46.611-3.672 1.067z" fill="#BDEBE6"/><path d="M269.72 438.695a3.957 3.957 0 012.845-1.535 28.968 28.968 0 0121.207 6.95 28.967 28.967 0 0110.074 19.91 29.183 29.183 0 01-26.862 31.279 3.975 3.975 0 01-3.314-6.551 3.974 3.974 0 012.714-1.373 21.075 21.075 0 0014.472-7.33 21.095 21.095 0 005.062-15.432 21.095 21.095 0 00-7.337-14.472 21.1 21.1 0 00-15.432-5.062 3.975 3.975 0 01-3.847-2.165 3.98 3.98 0 01-.418-1.494c-.068-.98.23-1.952.836-2.725z" fill="#937AB9"/><path d="M132.431 461.323a4.128 4.128 0 01-1.7-1.878 4.149 4.149 0 01.657-4.452l54.415-61.97a4.144 4.144 0 013.789-1.36 4.158 4.158 0 013.149 2.493l25.81 61.792a4.144 4.144 0 01-.373 3.892 4.145 4.145 0 01-3.446 1.855l-80.229.185a4.152 4.152 0 01-2.072-.557zm55.221-57.833l-43.96 50.068 64.81-.154-20.85-49.914z" fill="#FDBFBC"/><path d="M361.865 304.848l-34.836-5.546 39.614-21.803-4.778 27.349zM388.25 561.745l-14.981-51.502 8.572-2.492 14.979 51.501-8.57 2.493zm-11.819-49.765l13.557 46.603 3.668-1.059-13.553-46.611-3.672 1.067z" fill="#BDEBE6"/><path d="M409.928 510.989a6.466 6.466 0 10-10.837-7.057 6.466 6.466 0 0010.837 7.057z" fill="#E89C38"/><path d="M269.72 438.695a3.957 3.957 0 012.845-1.535 28.968 28.968 0 0121.207 6.95 28.967 28.967 0 0110.074 19.91 29.183 29.183 0 01-26.862 31.279 3.975 3.975 0 01-3.314-6.551 3.974 3.974 0 012.714-1.373 21.075 21.075 0 0014.472-7.33 21.095 21.095 0 005.062-15.432 21.095 21.095 0 00-7.337-14.472 21.1 21.1 0 00-15.432-5.062 3.975 3.975 0 01-3.847-2.165 3.98 3.98 0 01-.418-1.494c-.068-.98.23-1.952.836-2.725z" fill="#937AB9"/><path d="M320.265 654.245c-11.373 12.206-10.698 31.319 1.507 42.692 12.206 11.373 31.32 10.698 42.692-1.508 11.373-12.205 10.698-31.319-1.508-42.692-12.205-11.372-31.319-10.697-42.691 1.508z" fill="#E89C38"/><path d="M317.07 691.697a4.047 4.047 0 00-3.088-.239 4.046 4.046 0 00-2.355 2.013 4.056 4.056 0 001.774 5.443 4.04 4.04 0 002.077.428 53.629 53.629 0 002.314-.895 4.06 4.06 0 001.058-1.31 4.05 4.05 0 00-1.78-5.44zM318.685 679.583a4.052 4.052 0 001.774 5.443 4.051 4.051 0 005.681-4.866 4.049 4.049 0 00-5.103-2.591 4.049 4.049 0 00-2.352 2.014zM325.747 665.695a4.052 4.052 0 003.297 5.871 4.044 4.044 0 003.922-2.201 4.054 4.054 0 00.24-3.089 4.054 4.054 0 00-2.013-2.354 4.052 4.052 0 00-5.446 1.773zM332.811 651.808a4.04 4.04 0 00-.24 3.089 4.033 4.033 0 002.016 2.353 4.054 4.054 0 003.089.24 4.054 4.054 0 002.354-2.013 4.056 4.056 0 00-1.773-5.443 4.057 4.057 0 00-5.446 1.774zM339.875 637.917a4.051 4.051 0 001.773 5.443 4.051 4.051 0 005.875-3.401 50.152 50.152 0 00-.638-2.397 4.023 4.023 0 00-1.58-1.424 4.054 4.054 0 00-5.43 1.779zM327.543 692.829a2.891 2.891 0 00-.159.355 54.17 54.17 0 003.333-2.547 4.047 4.047 0 00-3.174 2.192zM340.053 677.165a4.051 4.051 0 00-5.443 1.773 4.054 4.054 0 001.777 5.443c.146.073.296.137.45.192a50.246 50.246 0 004.57-6.3 4.006 4.006 0 00-1.348-1.115l-.006.007zM347.117 663.277a4.056 4.056 0 00-5.443 1.773 4.056 4.056 0 001.774 5.443 4.033 4.033 0 001.698.436 50.825 50.825 0 002.399-7.407 4.272 4.272 0 00-.422-.252l-.006.007zM348.832 655.016c.091-1.398.118-2.797.094-4.191a4.039 4.039 0 00-.094 4.191zM261.973 681.167a4.059 4.059 0 00-4.465.528 50.032 50.032 0 005.294 6.135 4.065 4.065 0 001.374-2.736 4.057 4.057 0 00-2.203-3.927zM270.811 672.716a4.055 4.055 0 00-1.774-5.443 4.056 4.056 0 00-5.443 1.774 4.051 4.051 0 001.774 5.443 4.047 4.047 0 003.088.239 4.046 4.046 0 002.355-2.013zM277.876 658.828a4.056 4.056 0 00-1.774-5.443 4.051 4.051 0 00-5.443 1.774 4.051 4.051 0 001.774 5.443 4.05 4.05 0 005.443-1.774zM284.94 644.94a4.051 4.051 0 00-4.865-5.682 4.05 4.05 0 00-2.355 2.013 4.051 4.051 0 004.864 5.683 4.056 4.056 0 002.356-2.014zM292 631.05a4.046 4.046 0 00-4.861-5.682 4.054 4.054 0 00-2.355 2.012 4.054 4.054 0 001.777 5.443A4.049 4.049 0 00292 631.05zM299.064 617.156a4.051 4.051 0 00-1.773-5.443 4.053 4.053 0 00-5.443 1.777 4.05 4.05 0 001.774 5.442 4.051 4.051 0 005.442-1.776zM300.68 605.047a4.054 4.054 0 003.089.24 4.054 4.054 0 002.354-2.013c.235-.462.378-.964.422-1.48a50.201 50.201 0 00-8.074-.663 4.055 4.055 0 002.209 3.916zM279.669 685.959a4.052 4.052 0 00-1.774-5.443 4.05 4.05 0 00-5.442 1.774 4.051 4.051 0 001.773 5.442 4.051 4.051 0 005.443-1.773zM279.51 668.399a4.051 4.051 0 001.773 5.443 4.054 4.054 0 005.443-1.777 4.047 4.047 0 10-7.216-3.666zM286.571 654.511a4.054 4.054 0 001.777 5.443c.474.241.991.386 1.521.428a4.066 4.066 0 001.568-.187 4.055 4.055 0 002.354-2.015 4.046 4.046 0 00-1.774-5.442 4.05 4.05 0 00-5.446 1.773zM293.636 640.623a4.05 4.05 0 007.219 3.67 4.052 4.052 0 00-1.774-5.443 4.05 4.05 0 00-5.445 1.773zM307.923 630.407a4.05 4.05 0 00-1.774-5.443 4.053 4.053 0 00-5.442 1.777 4.05 4.05 0 001.773 5.443 4.053 4.053 0 005.443-1.777zM314.971 616.52a4.051 4.051 0 00-1.776-5.442 4.054 4.054 0 00-3.089-.24 4.054 4.054 0 00-2.354 2.013 4.051 4.051 0 004.863 5.683 4.053 4.053 0 002.356-2.014zM253.099 646.224a4.054 4.054 0 00-1.777-5.443 4.024 4.024 0 00-2.33-.41 50.428 50.428 0 00-1.171 7.709 4.048 4.048 0 005.278-1.856zM254.711 634.113a4.053 4.053 0 005.443-1.777 4.046 4.046 0 00-1.774-5.442 4.051 4.051 0 00-4.421.489c-.258.471-.52.936-.766 1.416-.246.479-.465.97-.692 1.456a4.043 4.043 0 002.21 3.858zM267.224 618.448a4.044 4.044 0 00-1.617-5.353 50.191 50.191 0 00-5.541 5.487 4.042 4.042 0 003.227 2.073 4.048 4.048 0 003.931-2.207zM253.116 667.912a4.023 4.023 0 00-2.862-.306 51.046 51.046 0 003.112 7.384 4.025 4.025 0 001.954-3.154 4.052 4.052 0 00-2.204-3.924zM261.954 659.47a4.056 4.056 0 00-1.774-5.443 4.053 4.053 0 00-5.443 1.777 4.053 4.053 0 001.777 5.442 4.048 4.048 0 005.44-1.776zM269.018 645.582a4.055 4.055 0 00-1.774-5.443 4.056 4.056 0 00-5.443 1.777 4.049 4.049 0 001.774 5.443 4.053 4.053 0 005.443-1.777zM276.082 631.694a4.056 4.056 0 00-1.773-5.443 4.049 4.049 0 00-3.67 7.217 4.051 4.051 0 005.443-1.774zM283.146 617.806a4.051 4.051 0 00-4.865-5.682 4.054 4.054 0 00-2.354 2.013 4.054 4.054 0 00-.24 3.089 4.054 4.054 0 002.013 2.354 4.057 4.057 0 005.446-1.774zM290.207 603.918c.344-.677.49-1.438.421-2.195a50.776 50.776 0 00-7.799 1.835 4.035 4.035 0 001.932 2.134 4.05 4.05 0 005.446-1.774zM286.752 693.75a4.053 4.053 0 00-5.882 3.754c.024.686.223 1.354.578 1.942a49.446 49.446 0 005.254 1.552 4.054 4.054 0 00.05-7.248zM288.364 681.645a4.054 4.054 0 001.777 5.443 4.051 4.051 0 005.443-1.773 4.054 4.054 0 00-1.777-5.443 4.052 4.052 0 00-5.443 1.773zM295.429 667.751a4.053 4.053 0 001.777 5.443 4.047 4.047 0 10-1.777-5.443zM302.253 654.446a4.052 4.052 0 107.705 2.518 4.053 4.053 0 10-7.705-2.518zM309.557 639.978a4.054 4.054 0 001.774 5.443 4.056 4.056 0 005.443-1.773 4.054 4.054 0 00-1.777-5.443 4.049 4.049 0 00-5.44 1.773zM318.975 624.073a4.052 4.052 0 102.51 7.707 4.052 4.052 0 00-2.51-7.707zM323.689 612.202a4.054 4.054 0 001.777 5.443 4.047 4.047 0 005.818-4.316 50.199 50.199 0 00-4.345-3.327 4.05 4.05 0 00-3.25 2.2zM297.222 694.888a4.054 4.054 0 001.777 5.443 4.051 4.051 0 005.442-1.774 4.051 4.051 0 00-1.773-5.442 4.052 4.052 0 00-5.446 1.773zM304.287 681a4.051 4.051 0 001.773 5.443 4.056 4.056 0 005.443-1.774 4.051 4.051 0 00-1.774-5.442 4.051 4.051 0 00-5.442 1.773zM311.35 667.112a4.056 4.056 0 001.774 5.443 4.053 4.053 0 005.443-1.776 4.049 4.049 0 00-1.774-5.443 4.051 4.051 0 00-5.443 1.776zM318.409 653.225a4.056 4.056 0 001.773 5.443 4.054 4.054 0 005.443-1.777 4.053 4.053 0 00-1.773-5.437 4.06 4.06 0 00-3.088-.242 4.058 4.058 0 00-2.355 2.013zM325.476 639.337a4.053 4.053 0 001.777 5.442 4.047 4.047 0 10.579-7.456 4.056 4.056 0 00-2.356 2.014zM332.54 625.455a4.054 4.054 0 001.774 5.443 4.051 4.051 0 005.443-1.774 4.05 4.05 0 00-1.774-5.442 4.051 4.051 0 00-5.443 1.773z" fill="#FFBE4D"/><path d="M259.796 548.681a3.982 3.982 0 013 1.209 28.95 28.95 0 018.187 20.757 28.962 28.962 0 01-8.887 20.467 29.185 29.185 0 01-41.227-.7 3.967 3.967 0 01-1.111-2.832 3.972 3.972 0 012.524-3.624 3.959 3.959 0 013.041.058c.478.209.911.51 1.272.886a21.098 21.098 0 0014.876 6.454 21.076 21.076 0 0015.101-5.956 21.055 21.055 0 006.466-14.888 21.087 21.087 0 00-5.956-15.098 3.983 3.983 0 01-1.11-2.832 3.971 3.971 0 011.218-2.788 3.947 3.947 0 012.606-1.113z" fill="#BDEBE6"/><path d="M167.45 593.73l9.599-20.272-20.272-9.599-9.599 20.272 20.272 9.599z" fill="#937AB9"/><path d="M265.046 357.325a18.615 18.615 0 01-8.955-12.508 12.48 12.48 0 00-16.293-9.407 18.612 18.612 0 01-24.262-14.007 12.49 12.49 0 00-6.005-8.409 12.508 12.508 0 00-10.288-.998 3.056 3.056 0 01-1.971-5.787 18.616 18.616 0 0124.261 14.008 12.514 12.514 0 006.009 8.41 12.498 12.498 0 0010.285.997 18.618 18.618 0 0115.311 1.498 18.613 18.613 0 018.95 12.509 12.52 12.52 0 006.009 8.411 12.498 12.498 0 0010.285.996 18.6 18.6 0 017.817-.906 18.602 18.602 0 0116.444 14.914 3.055 3.055 0 01-4.699 3.132 3.061 3.061 0 01-1.298-1.946 12.49 12.49 0 00-6.005-8.409 12.508 12.508 0 00-10.288-.998 18.612 18.612 0 01-15.307-1.5z" fill="#FFBE4D"/><path d="M256.678 371.819a18.628 18.628 0 01-8.954-12.508 12.512 12.512 0 00-6.006-8.409 12.502 12.502 0 00-10.288-.998 18.607 18.607 0 01-15.307-1.5 18.626 18.626 0 01-8.954-12.508 12.495 12.495 0 00-6.006-8.408 12.498 12.498 0 00-10.288-.999 3.056 3.056 0 11-1.971-5.786 18.618 18.618 0 0124.262 14.007 12.496 12.496 0 006.008 8.41 12.49 12.49 0 0010.285.997 18.618 18.618 0 0124.262 14.008 12.502 12.502 0 006.008 8.41 12.497 12.497 0 0010.285.997 18.618 18.618 0 0121.138 6.786 18.615 18.615 0 013.124 7.221 3.06 3.06 0 01-2.406 3.591 3.054 3.054 0 01-3.591-2.405 12.512 12.512 0 00-6.006-8.409 12.507 12.507 0 00-10.288-.998 18.607 18.607 0 01-15.307-1.499z" fill="#FFBE4D"/><path d="M248.315 386.304a18.605 18.605 0 01-8.955-12.508 12.497 12.497 0 00-6.006-8.409 12.512 12.512 0 00-10.287-.998 18.606 18.606 0 01-15.307-1.499 18.608 18.608 0 01-8.955-12.508 12.497 12.497 0 00-6.006-8.409 12.497 12.497 0 00-10.287-.998 3.058 3.058 0 01-3.729-4.242 3.06 3.06 0 011.757-1.545 18.618 18.618 0 0124.262 14.008 12.5 12.5 0 006.008 8.41 12.502 12.502 0 0010.285.997 18.615 18.615 0 0124.262 14.007 12.496 12.496 0 006.008 8.41 12.497 12.497 0 0010.285.997 18.618 18.618 0 0124.262 14.007 3.057 3.057 0 01-5.997 1.187 12.497 12.497 0 00-6.006-8.409 12.514 12.514 0 00-10.287-.998 18.596 18.596 0 01-15.307-1.5z" fill="#FFBE4D"/><path d="M416.589 377.685l-76.844 5.671 5.67 76.844 76.844-5.67-5.67-76.845zM303.913 164.308a4.128 4.128 0 01-1.7-1.878 4.139 4.139 0 01.657-4.452l54.415-61.97a4.14 4.14 0 015.677-.506c.55.436.982 1.004 1.253 1.652l25.818 61.779a4.156 4.156 0 01-.374 3.893 4.137 4.137 0 01-3.446 1.854l-80.228.186a4.142 4.142 0 01-2.072-.558zm55.221-57.833l-43.961 50.068 64.811-.154-20.85-49.914zM132.431 461.323a4.128 4.128 0 01-1.7-1.878 4.149 4.149 0 01.657-4.452l54.415-61.97a4.144 4.144 0 013.789-1.36 4.158 4.158 0 013.149 2.493l25.81 61.792a4.144 4.144 0 01-.373 3.892 4.145 4.145 0 01-3.446 1.855l-80.229.185a4.152 4.152 0 01-2.072-.557zm55.221-57.833l-43.96 50.068 64.81-.154-20.85-49.914z" fill="#FDBFBC"/><path d="M331.35 225.349l17.976-4.817a2.705 2.705 0 001.659-1.272 2.699 2.699 0 00.271-2.071 2.735 2.735 0 00-3.346-1.932l-17.955 4.811-4.811-17.955a2.733 2.733 0 00-5.348.348c-.047.356-.023.717.072 1.064l4.803 17.968-17.955 4.811a2.708 2.708 0 00-1.659 1.272 2.729 2.729 0 002.01 4.075 2.74 2.74 0 001.063-.069l17.955-4.811 4.811 17.955a2.72 2.72 0 001.274 1.656 2.708 2.708 0 002.072.275 2.715 2.715 0 001.66-1.272 2.71 2.71 0 00.272-2.074l-4.824-17.962zM265.046 357.325a18.615 18.615 0 01-8.955-12.508 12.48 12.48 0 00-16.293-9.407 18.612 18.612 0 01-24.262-14.007 12.49 12.49 0 00-6.005-8.409 12.508 12.508 0 00-10.288-.998 3.056 3.056 0 01-1.971-5.787 18.616 18.616 0 0124.261 14.008 12.514 12.514 0 006.009 8.41 12.498 12.498 0 0010.285.997 18.618 18.618 0 0115.311 1.498 18.613 18.613 0 018.95 12.509 12.52 12.52 0 006.009 8.411 12.498 12.498 0 0010.285.996 18.6 18.6 0 017.817-.906 18.602 18.602 0 0116.444 14.914 3.055 3.055 0 01-4.699 3.132 3.061 3.061 0 01-1.298-1.946 12.49 12.49 0 00-6.005-8.409 12.508 12.508 0 00-10.288-.998 18.612 18.612 0 01-15.307-1.5z" fill="#FFBE4D"/><path d="M256.678 371.819a18.628 18.628 0 01-8.954-12.508 12.512 12.512 0 00-6.006-8.409 12.502 12.502 0 00-10.288-.998 18.607 18.607 0 01-15.307-1.5 18.626 18.626 0 01-8.954-12.508 12.495 12.495 0 00-6.006-8.408 12.498 12.498 0 00-10.288-.999 3.056 3.056 0 11-1.971-5.786 18.618 18.618 0 0124.262 14.007 12.496 12.496 0 006.008 8.41 12.49 12.49 0 0010.285.997 18.618 18.618 0 0124.262 14.008 12.502 12.502 0 006.008 8.41 12.497 12.497 0 0010.285.997 18.618 18.618 0 0121.138 6.786 18.615 18.615 0 013.124 7.221 3.06 3.06 0 01-2.406 3.591 3.054 3.054 0 01-3.591-2.405 12.512 12.512 0 00-6.006-8.409 12.507 12.507 0 00-10.288-.998 18.607 18.607 0 01-15.307-1.499z" fill="#FFBE4D"/><path d="M248.315 386.304a18.605 18.605 0 01-8.955-12.508 12.497 12.497 0 00-6.006-8.409 12.512 12.512 0 00-10.287-.998 18.606 18.606 0 01-15.307-1.499 18.608 18.608 0 01-8.955-12.508 12.497 12.497 0 00-6.006-8.409 12.497 12.497 0 00-10.287-.998 3.058 3.058 0 01-3.729-4.242 3.06 3.06 0 011.757-1.545 18.618 18.618 0 0124.262 14.008 12.5 12.5 0 006.008 8.41 12.502 12.502 0 0010.285.997 18.615 18.615 0 0124.262 14.007 12.496 12.496 0 006.008 8.41 12.497 12.497 0 0010.285.997 18.618 18.618 0 0124.262 14.007 3.057 3.057 0 01-5.997 1.187 12.497 12.497 0 00-6.006-8.409 12.514 12.514 0 00-10.287-.998 18.596 18.596 0 01-15.307-1.5z" fill="#FFBE4D"/><path d="M303.913 164.308a4.128 4.128 0 01-1.7-1.878 4.139 4.139 0 01.657-4.452l54.415-61.97a4.14 4.14 0 015.677-.506c.55.436.982 1.004 1.253 1.652l25.818 61.779a4.156 4.156 0 01-.374 3.893 4.137 4.137 0 01-3.446 1.854l-80.228.186a4.142 4.142 0 01-2.072-.558zm55.221-57.833l-43.961 50.068 64.811-.154-20.85-49.914z" fill="#FDBFBC"/></svg>