<svg width="320" height="745" fill="none" xmlns="http://www.w3.org/2000/svg"><path d="M-128.87 691.2a5 5 0 01-1.3-5.49c.34-.9.94-1.69 1.71-2.26l80.4-59.11a5.01 5.01 0 017.9 3.14l14.47 79.73a5.02 5.02 0 01-6 5.8l-94.87-20.61a5.03 5.03 0 01-2.3-1.2zm80.28-54l-64.95 47.75 76.63 16.65-11.68-64.4z" fill="#FDBFBC"/><path d="M54.87 602.73a22.54 22.54 0 01-7.34-17.1 15.11 15.11 0 00-16.81-15.36 22.5 22.5 0 01-25.04-22.85 15.11 15.11 0 00-16.8-15.35 3.7 3.7 0 01-.84-7.35 22.55 22.55 0 0125.04 22.86 15.13 15.13 0 0016.81 15.34 22.53 22.53 0 0125.04 22.86 15.13 15.13 0 0016.81 15.35 22.51 22.51 0 0125.04 22.85 3.7 3.7 0 11-7.4-.15 15.12 15.12 0 00-16.81-15.35 22.52 22.52 0 01-17.7-5.75z" fill="#FFBE4D"/><path d="M41.22 617.69a22.54 22.54 0 01-7.34-17.11 15.13 15.13 0 00-16.81-15.35 22.52 22.52 0 01-25.04-22.86 15.12 15.12 0 00-16.81-15.34 3.7 3.7 0 01-.83-7.35A22.54 22.54 0 01-.57 562.53a15.13 15.13 0 0016.81 15.35 22.51 22.51 0 0125.04 22.85 15.13 15.13 0 0016.81 15.35 22.52 22.52 0 0125.04 22.86 3.7 3.7 0 11-7.4-.16 15.13 15.13 0 00-16.81-15.35 22.52 22.52 0 01-17.7-5.74z" fill="#FFBE4D"/><path d="M27.57 632.63a22.52 22.52 0 01-7.34-17.1A15.13 15.13 0 003.4 600.2a22.5 22.5 0 01-25.02-22.87 15.12 15.12 0 00-16.82-15.35 3.7 3.7 0 11-.82-7.35 22.53 22.53 0 0125.03 22.86A15.14 15.14 0 002.6 592.83a22.54 22.54 0 0125.04 22.85 15.13 15.13 0 0016.81 15.35 22.52 22.52 0 0125.04 22.86 3.7 3.7 0 01-7.4-.16 15.13 15.13 0 00-16.8-15.35 22.5 22.5 0 01-17.71-5.75z" fill="#FFBE4D"/><path d="M150.93 384.7a5 5 0 01-1.31-5.48c.34-.9.94-1.7 1.72-2.27l80.4-59.1a5 5 0 017.89 3.15l14.47 79.72a5 5 0 01-6 5.78l-94.87-20.61a5.03 5.03 0 01-2.3-1.18zm80.28-54l-64.96 47.75 76.64 16.65-11.68-64.4zM-128.87 691.2a5 5 0 01-1.3-5.49c.34-.9.94-1.69 1.71-2.26l80.4-59.11a5.01 5.01 0 017.9 3.14l14.47 79.73a5.02 5.02 0 01-6 5.8l-94.87-20.61a5.03 5.03 0 01-2.3-1.2zm80.28-54l-64.95 47.75 76.63 16.65-11.68-64.4z" fill="#FDBFBC"/><path d="M167.5 463.97l22.5-1.02a3.26 3.26 0 002.29-1.07 3.28 3.28 0 00-.22-4.67 3.3 3.3 0 00-2.38-.86l-22.47 1.02-1.02-22.47a3.3 3.3 0 00-6.6.3l1 22.48-22.46 1.02a3.28 3.28 0 00-2.96 2.18 3.3 3.3 0 003.26 4.43l22.47-1.02 1.02 22.46a3.28 3.28 0 002.18 2.96 3.3 3.3 0 004.43-3.26l-1.04-22.48z" fill="#FFBE4D"/><path d="M120.7 290.03l-4.34-64.76 10.78-.72 4.33 64.76-10.78.72zm-1.06-61.88l3.92 58.6 4.62-.3-3.92-58.61-4.62.3z" fill="#BDEBE6"/><path d="M9.1 315.43a36.55 36.55 0 10-3.33-73.03 36.55 36.55 0 003.33 73.03z" fill="#E89C38"/><path d="M43.57 285.76a4.9 4.9 0 107.85-5.26 64 64 0 00-2.75-1.18 4.9 4.9 0 00-5.1 6.44zM31.92 294.87a4.9 4.9 0 10-3.14-9.29 4.9 4.9 0 003.14 9.29zM14.06 300.89a4.9 4.9 0 10-3.14-9.29 4.9 4.9 0 003.14 9.29zM-3.81 306.91a4.9 4.9 0 10-3.13-9.27 4.9 4.9 0 003.13 9.27zM35.48 275.92c.15-.05.3-.11.44-.18a65.38 65.38 0 00-5.04-.62 4.9 4.9 0 004.6.8zM11.4 278.86a4.9 4.9 0 109.06-3.68c-3.14.29-6.24.81-9.29 1.58-.08.7 0 1.42.22 2.1h.01zM-6.46 284.88a4.9 4.9 0 108.18-4.94 61.47 61.47 0 00-8.35 4.37 5 5 0 00.16.57zM82.28 341.52a4.9 4.9 0 004.3 3.33c.47-3.24.68-6.52.62-9.79a4.84 4.84 0 00-3.5 1.2 4.9 4.9 0 00-1.42 5.26zM67.48 341.34a4.9 4.9 0 103.15 9.3 4.9 4.9 0 00-3.15-9.3zM49.62 347.36a4.9 4.9 0 103.14 9.3 4.9 4.9 0 00-3.14-9.3zM31.75 353.38a4.9 4.9 0 103.15 9.3 4.9 4.9 0 00-3.15-9.3zM13.88 359.41a4.9 4.9 0 003.13 9.28 4.9 4.9 0 00-3.13-9.28zM-3.99 365.44a4.9 4.9 0 103.15 9.3 4.9 4.9 0 00-3.15-9.3zM71.04 322.4a4.9 4.9 0 103.14 9.28 4.9 4.9 0 00-3.14-9.28zM56.3 337.7a4.9 4.9 0 10-3.13-9.28 4.9 4.9 0 003.14 9.29zM38.44 343.73a4.9 4.9 0 10-3.14-9.28 4.9 4.9 0 003.14 9.28zM20.58 349.75a4.9 4.9 0 10-3.14-9.28 4.9 4.9 0 003.14 9.28zM-.42 346.48a4.9 4.9 0 103.14 9.3 4.9 4.9 0 00-3.14-9.3zM60.36 379.24a4.9 4.9 0 00-1.41 8.54 61.03 61.03 0 007.54-5.67 4.9 4.9 0 00-6.13-2.87zM48.7 388.34a4.9 4.9 0 10-5.04 6.46c.62-.2 1.24-.37 1.86-.58.62-.2 1.22-.45 1.83-.67a4.9 4.9 0 001.36-5.2zM24.63 391.29a4.89 4.89 0 00-3.14 6c3.14.22 6.3.2 9.44-.06a4.89 4.89 0 00-6.3-5.94zM78.7 360.48a4.86 4.86 0 002.22 2.69 61.83 61.83 0 003.57-9.02 4.87 4.87 0 00-6.03 4.43 4.9 4.9 0 00.25 1.9zM63.92 360.3a4.9 4.9 0 103.15 9.28 4.9 4.9 0 00-3.15-9.29zM46.05 366.31a4.9 4.9 0 103.15 9.3 4.9 4.9 0 00-3.15-9.3zM28.19 372.33a4.9 4.9 0 103.14 9.29 4.9 4.9 0 00-3.14-9.29zM10.32 378.36a4.9 4.9 0 103.15 9.29 4.9 4.9 0 00-3.15-9.3zM-7.54 384.38c-.87.3-1.65.83-2.23 1.54a61.54 61.54 0 008.3 5.02 4.87 4.87 0 00-2.33-6.3 4.9 4.9 0 00-3.74-.26zM71.52 309.66a4.9 4.9 0 009.4-.43 59.57 59.57 0 00-3.22-5.79 4.87 4.87 0 00-5.93 2.48 4.9 4.9 0 00-.25 3.74zM59.87 318.76a4.9 4.9 0 10-3.14-9.28 4.9 4.9 0 003.14 9.28zM42 324.79a4.9 4.9 0 10-3.15-9.3 4.9 4.9 0 003.15 9.3zM24.83 330.5a4.9 4.9 0 10-4.52-8.7 4.9 4.9 0 004.52 8.7zM6.27 336.83a4.9 4.9 0 10-3.14-9.29 4.9 4.9 0 003.14 9.29zM63.43 299.81a4.9 4.9 0 10-3.15-9.29 4.9 4.9 0 003.15 9.3zM45.56 305.83a4.9 4.9 0 10-3.14-9.29 4.9 4.9 0 003.14 9.3zM27.7 311.86a4.9 4.9 0 10-3.14-9.29 4.9 4.9 0 003.14 9.29zM9.84 317.88a4.9 4.9 0 10-3.14-9.28 4.9 4.9 0 003.14 9.28z" fill="#FFBE4D"/><path d="M-28.04 457.88a4.8 4.8 0 01-1.57-3.59 35.04 35.04 0 0110.5-24.87 35.05 35.05 0 0125.02-10.17 35.31 35.31 0 0135.04 35.52 4.8 4.8 0 11-9.62-.08 25.52 25.52 0 00-7.39-18.18 25.5 25.5 0 00-18.1-7.64 25.5 25.5 0 00-18.2 7.4 25.52 25.52 0 00-7.63 18.09 4.8 4.8 0 01-8.05 3.52z" fill="#BDEBE6"/><path d="M12.56 113.82a4.8 4.8 0 013.76-1.07 35.03 35.03 0 0123.26 13.72 35.04 35.04 0 016.73 26.14 35.31 35.31 0 01-39.86 30 4.8 4.8 0 111.34-9.52 25.5 25.5 0 0019.01-4.91 25.5 25.5 0 0010-16.92 25.52 25.52 0 00-4.92-19.01 25.51 25.51 0 00-16.93-10 4.82 4.82 0 01-4.09-5.42 4.81 4.81 0 011.7-3z" fill="#937AB9"/><path d="M54.87 602.73a22.54 22.54 0 01-7.34-17.1 15.11 15.11 0 00-16.81-15.36 22.5 22.5 0 01-25.04-22.85 15.11 15.11 0 00-16.8-15.35 3.7 3.7 0 01-.84-7.35 22.55 22.55 0 0125.04 22.86 15.13 15.13 0 0016.81 15.34 22.53 22.53 0 0125.04 22.86 15.13 15.13 0 0016.81 15.35 22.51 22.51 0 0125.04 22.85 3.7 3.7 0 11-7.4-.15 15.12 15.12 0 00-16.81-15.35 22.52 22.52 0 01-17.7-5.75z" fill="#FFBE4D"/><path d="M41.22 617.69a22.54 22.54 0 01-7.34-17.11 15.13 15.13 0 00-16.81-15.35 22.52 22.52 0 01-25.04-22.86 15.12 15.12 0 00-16.81-15.34 3.7 3.7 0 01-.83-7.35A22.54 22.54 0 01-.57 562.53a15.13 15.13 0 0016.81 15.35 22.51 22.51 0 0125.04 22.85 15.13 15.13 0 0016.81 15.35 22.52 22.52 0 0125.04 22.86 3.7 3.7 0 11-7.4-.16 15.13 15.13 0 00-16.81-15.35 22.52 22.52 0 01-17.7-5.74z" fill="#FFBE4D"/><path d="M27.57 632.63a22.52 22.52 0 01-7.34-17.1A15.13 15.13 0 003.4 600.2a22.5 22.5 0 01-25.02-22.87 15.12 15.12 0 00-16.82-15.35 3.7 3.7 0 11-.82-7.35 22.53 22.53 0 0125.03 22.86A15.14 15.14 0 002.6 592.83a22.54 22.54 0 0125.04 22.85 15.13 15.13 0 0016.81 15.35 22.52 22.52 0 0125.04 22.86 3.7 3.7 0 01-7.4-.16 15.13 15.13 0 00-16.8-15.35 22.5 22.5 0 01-17.71-5.75z" fill="#FFBE4D"/><path d="M89.93 497.14l-25.46 9.4L73.86 532l25.46-9.4-9.39-25.46z" fill="#937AB9"/><path d="M150.93 384.7a5 5 0 01-1.31-5.48c.34-.9.94-1.7 1.72-2.27l80.4-59.1a5 5 0 017.89 3.15l14.47 79.72a5 5 0 01-6 5.78l-94.87-20.61a5.03 5.03 0 01-2.3-1.18zm80.28-54l-64.96 47.75 76.64 16.65-11.68-64.4z" fill="#FDBFBC"/><path d="M120.7 290.03l-4.34-64.76 10.78-.72 4.33 64.76-10.78.72zm-1.06-61.88l3.92 58.6 4.62-.3-3.92-58.61-4.62.3z" fill="#BDEBE6"/><path d="M12.56 113.82a4.8 4.8 0 013.76-1.07 35.03 35.03 0 0123.26 13.72 35.04 35.04 0 016.73 26.14 35.31 35.31 0 01-39.86 30 4.8 4.8 0 111.34-9.52 25.5 25.5 0 0019.01-4.91 25.5 25.5 0 0010-16.92 25.52 25.52 0 00-4.92-19.01 25.51 25.51 0 00-16.93-10 4.82 4.82 0 01-4.09-5.42 4.81 4.81 0 011.7-3z" fill="#937AB9"/></svg>