<svg width="527" height="972" fill="none" xmlns="http://www.w3.org/2000/svg"><path d="M-176.952 990.393a7.34 7.34 0 01-2.236-3.91 7.37 7.37 0 01.318-4.159 7.362 7.362 0 012.523-3.322l118.128-86.857a7.368 7.368 0 017.098-.916 7.39 7.39 0 014.518 5.53l21.25 117.161a7.354 7.354 0 01-.24 3.57 7.42 7.42 0 01-1.896 3.05 7.366 7.366 0 01-3.106 1.78 7.248 7.248 0 01-3.583.12l-139.389-30.289a7.373 7.373 0 01-3.385-1.758zm117.958-79.359l-95.441 70.17 112.604 24.466-17.163-94.636z" fill="#FDBFBC"/><path d="M93.016 860.398a33.104 33.104 0 01-10.777-25.137 22.205 22.205 0 00-7.22-16.893 22.232 22.232 0 00-17.485-5.659 33.083 33.083 0 01-26.008-8.444 33.099 33.099 0 01-10.778-25.137 22.202 22.202 0 00-7.22-16.893 22.218 22.218 0 00-17.485-5.659 5.438 5.438 0 01-6.007-4.793 5.433 5.433 0 014.792-6.008 33.115 33.115 0 0126.017 8.444 33.075 33.075 0 0110.77 25.137 22.238 22.238 0 007.224 16.898 22.221 22.221 0 0017.48 5.655 33.1 33.1 0 0126.016 8.443 33.075 33.075 0 0110.77 25.138 22.228 22.228 0 0024.705 22.552 33.08 33.08 0 0126.014 8.442 33.09 33.09 0 0110.772 25.139 5.437 5.437 0 01-10.515 1.878 5.446 5.446 0 01-.352-2.106 22.207 22.207 0 00-7.233-16.884 22.209 22.209 0 00-17.471-5.669 33.085 33.085 0 01-26.009-8.444z" fill="#FFBE4D"/><path d="M72.957 882.374a33.117 33.117 0 01-10.778-25.137 22.223 22.223 0 00-7.22-16.894 22.249 22.249 0 00-17.484-5.659 33.082 33.082 0 01-26.009-8.444A33.104 33.104 0 01.69 801.103a22.219 22.219 0 00-7.22-16.893 22.235 22.235 0 00-17.485-5.659 5.434 5.434 0 11-1.215-10.8 33.11 33.11 0 0126.013 8.447 33.102 33.102 0 0110.773 25.134 22.244 22.244 0 007.225 16.897 22.221 22.221 0 0017.48 5.655 33.109 33.109 0 0126.012 8.448 33.084 33.084 0 0110.774 25.133 22.225 22.225 0 0015.357 21.604c3.013.979 6.2 1.302 9.347.948a33.122 33.122 0 0113.919 1.411 33.114 33.114 0 0120.197 18.438 33.095 33.095 0 012.67 13.732 5.444 5.444 0 01-1.651 3.848 5.44 5.44 0 01-5.982 1.068 5.453 5.453 0 01-1.745-1.23 5.446 5.446 0 01-1.488-3.914 22.238 22.238 0 00-7.237-16.88 22.228 22.228 0 00-17.468-5.672 33.099 33.099 0 01-26.008-8.444z" fill="#FFBE4D"/><path d="M52.906 904.337a33.098 33.098 0 01-10.788-25.125 22.223 22.223 0 00-7.221-16.894 22.232 22.232 0 00-17.484-5.658 33.07 33.07 0 01-25.998-8.457 33.079 33.079 0 01-10.777-25.136 22.219 22.219 0 00-7.22-16.894 22.235 22.235 0 00-17.485-5.659 5.434 5.434 0 11-1.215-10.8 33.109 33.109 0 0126.013 8.448 33.086 33.086 0 0110.773 25.133 22.244 22.244 0 007.225 16.897 22.23 22.23 0 0017.48 5.655 33.11 33.11 0 0126.012 8.448 33.093 33.093 0 0110.774 25.133 22.225 22.225 0 0015.357 21.605c3.013.978 6.2 1.301 9.347.947a33.107 33.107 0 0134.115 19.849 33.112 33.112 0 012.672 13.732 5.434 5.434 0 01-10.867-.228 22.227 22.227 0 00-24.704-22.552 33.085 33.085 0 01-26.009-8.444z" fill="#FFBE4D"/><path d="M234.156 540.051a7.339 7.339 0 01-2.236-3.911 7.37 7.37 0 012.84-7.481l118.128-86.856a7.36 7.36 0 013.425-1.362 7.358 7.358 0 016.627 2.649 7.381 7.381 0 011.546 3.347l21.269 117.138a7.37 7.37 0 01-2.139 6.591 7.364 7.364 0 01-6.691 1.905l-139.39-30.289a7.373 7.373 0 01-3.379-1.731zm117.958-79.36l-95.442 70.171 112.604 24.462-17.162-94.633zM-176.952 990.393a7.34 7.34 0 01-2.236-3.91 7.37 7.37 0 01.318-4.159 7.362 7.362 0 012.523-3.322l118.128-86.857a7.368 7.368 0 017.098-.916 7.39 7.39 0 014.518 5.53l21.25 117.161a7.354 7.354 0 01-.24 3.57 7.42 7.42 0 01-1.896 3.05 7.366 7.366 0 01-3.106 1.78 7.248 7.248 0 01-3.583.12l-139.389-30.289a7.373 7.373 0 01-3.385-1.758zm117.958-79.359l-95.441 70.17 112.604 24.466-17.163-94.636z" fill="#FDBFBC"/><path d="M258.51 656.517l33.053-1.505a4.818 4.818 0 003.367-1.577 4.79 4.79 0 00.981-1.62 4.794 4.794 0 00.28-1.873 4.861 4.861 0 00-5.073-4.631l-33.015 1.504-1.504-33.015a4.855 4.855 0 00-5.073-4.631 4.81 4.81 0 00-3.364 1.572 4.81 4.81 0 00-1.264 3.497l1.486 33.035-33.015 1.503a4.818 4.818 0 00-3.367 1.577 4.817 4.817 0 00-1.264 3.497 4.825 4.825 0 001.58 3.363 4.85 4.85 0 003.493 1.268l33.015-1.504 1.503 33.015a4.826 4.826 0 001.581 3.363 4.839 4.839 0 003.493 1.268 4.836 4.836 0 003.367-1.576 4.83 4.83 0 001.264-3.497l-1.524-33.033z" fill="#FFBE4D"/><path d="M189.731 400.936l-6.365-95.151 15.836-1.056 6.36 95.148-15.831 1.059zm-1.537-90.927l5.76 86.099 6.774-.439-5.75-86.112-6.784.452z" fill="#BDEBE6"/><path d="M25.762 438.256c29.63-1.35 52.555-26.464 51.206-56.094-1.35-29.629-26.463-52.555-56.093-51.206-29.63 1.35-52.556 26.464-51.206 56.094 1.35 29.629 26.463 52.555 56.093 51.206z" fill="#E89C38"/><path d="M76.421 394.668a7.2 7.2 0 009.12 4.52 7.204 7.204 0 004.52-9.119 7.162 7.162 0 00-2.105-3.128 94.177 94.177 0 00-4.053-1.742 7.192 7.192 0 00-2.973.347 7.2 7.2 0 00-4.509 9.122zM59.297 408.043a7.208 7.208 0 004.52-9.119 7.206 7.206 0 00-9.123-4.516 7.197 7.197 0 00-.89 13.267 7.199 7.199 0 005.493.368zM33.049 416.893a7.197 7.197 0 004.516-9.122 7.192 7.192 0 00-6.334-4.882 7.193 7.193 0 00-6.932 3.986 7.201 7.201 0 00-.373 5.495 7.208 7.208 0 009.123 4.523zM6.797 425.74a7.194 7.194 0 004.516-9.122 7.202 7.202 0 00-9.12-4.52 7.204 7.204 0 00-4.52 9.119 7.208 7.208 0 009.124 4.523zM64.53 380.199c.219-.07.433-.154.642-.252a96.323 96.323 0 00-7.4-.913 7.192 7.192 0 006.758 1.165zM29.15 384.526a7.21 7.21 0 009.12 4.521 7.208 7.208 0 004.515-9.123 7.312 7.312 0 00-.333-.804 89.531 89.531 0 00-13.643 2.314 7.125 7.125 0 00.325 3.093l.016-.001zM2.898 393.373a7.207 7.207 0 009.12 4.521 7.208 7.208 0 004.52-9.119 7.18 7.18 0 00-1.614-2.666A90.253 90.253 0 002.66 392.53c.057.286.132.568.223.844l.015-.001zM133.29 476.598a7.216 7.216 0 006.328 4.886c.69-4.761.995-9.57.911-14.379a7.088 7.088 0 00-2.711.366 7.192 7.192 0 00-4.156 3.625 7.214 7.214 0 00-.372 5.502zM111.55 476.334a7.203 7.203 0 00-4.52 9.119 7.21 7.21 0 009.119 4.52 7.207 7.207 0 004.52-9.119 7.198 7.198 0 00-9.119-4.52zM85.298 485.18a7.206 7.206 0 00-4.52 9.119 7.207 7.207 0 009.12 4.521 7.208 7.208 0 004.52-9.119 7.207 7.207 0 00-9.12-4.521zM59.047 494.028a7.204 7.204 0 00-4.516 9.122 7.202 7.202 0 009.12 4.52 7.207 7.207 0 004.52-9.119 7.208 7.208 0 00-9.124-4.523zM32.795 502.882a7.194 7.194 0 00-.895 13.265 7.209 7.209 0 005.494.375 7.209 7.209 0 004.516-9.123 7.203 7.203 0 00-9.115-4.517zM6.536 511.737a7.206 7.206 0 00-4.52 9.12 7.208 7.208 0 009.122 4.516 7.207 7.207 0 004.52-9.119 7.206 7.206 0 00-9.122-4.517zM116.78 448.494a7.2 7.2 0 00-4.52 9.119 7.207 7.207 0 009.119 4.52 7.203 7.203 0 004.52-9.119 7.203 7.203 0 00-9.119-4.52zM95.132 470.992a7.207 7.207 0 004.52-9.119 7.207 7.207 0 00-9.123-4.516 7.2 7.2 0 00-4.516 9.122 7.197 7.197 0 009.119 4.513zM68.882 479.842a7.2 7.2 0 00-4.603-13.643 7.203 7.203 0 00-4.52 9.119 7.207 7.207 0 009.123 4.524zM42.63 488.69a7.202 7.202 0 004.517-9.123 7.2 7.2 0 00-9.12-4.52 7.205 7.205 0 00-4.52 9.119 7.208 7.208 0 009.124 4.524zM11.775 483.886a7.208 7.208 0 00-4.52 9.119 7.198 7.198 0 0013.643-4.603 7.205 7.205 0 00-9.123-4.516zM101.08 532.017a7.2 7.2 0 00-4.516 9.123 7.133 7.133 0 002.449 3.419 89.553 89.553 0 0011.08-8.333 7.2 7.2 0 00-9.013-4.209zM83.963 545.391a7.204 7.204 0 00-9.122-4.516 7.2 7.2 0 001.703 13.998c.914-.276 1.826-.541 2.735-.844.91-.303 1.797-.655 2.69-.988a7.192 7.192 0 001.995-7.65zM48.58 549.715a7.19 7.19 0 00-4.606 8.811c4.616.335 9.252.31 13.864-.074a7.203 7.203 0 00-6.466-9.101 7.207 7.207 0 00-2.791.364zM128.046 504.453a7.145 7.145 0 003.253 3.949 90.808 90.808 0 005.236-13.249 7.162 7.162 0 00-6.406 1.574 7.206 7.206 0 00-2.446 4.939c-.063.944.06 1.891.363 2.787zM106.318 504.177a7.205 7.205 0 00-4.521 9.119 7.207 7.207 0 009.123 4.516 7.2 7.2 0 004.516-9.123 7.2 7.2 0 00-9.118-4.512zM80.065 513.024a7.208 7.208 0 00-4.52 9.119 7.207 7.207 0 009.123 4.516 7.197 7.197 0 004.52-9.119 7.207 7.207 0 00-9.123-4.516zM53.813 521.871a7.208 7.208 0 00-4.52 9.119 7.199 7.199 0 009.12 4.52 7.205 7.205 0 004.52-9.119 7.206 7.206 0 00-9.12-4.52zM27.561 530.718a7.205 7.205 0 00-4.516 9.123 7.202 7.202 0 009.12 4.52 7.2 7.2 0 004.52-9.119 7.205 7.205 0 00-9.124-4.524zM1.313 539.569a7.172 7.172 0 00-3.267 2.265 90.383 90.383 0 0012.188 7.373 7.163 7.163 0 00.202-5.114 7.198 7.198 0 00-9.123-4.524zM117.478 429.786a7.205 7.205 0 0012.141 2.551 7.168 7.168 0 001.683-3.185 87.507 87.507 0 00-4.743-8.508 7.148 7.148 0 00-4.565.019 7.203 7.203 0 00-4.516 9.123zM100.368 443.152a7.2 7.2 0 004.517-9.123 7.208 7.208 0 00-9.12-4.52 7.208 7.208 0 00-4.516 9.123 7.2 7.2 0 009.119 4.52zM74.109 452.007a7.206 7.206 0 004.516-9.123 7.202 7.202 0 00-9.12-4.52 7.207 7.207 0 00-4.52 9.119 7.205 7.205 0 009.124 4.524zM48.886 460.414a7.207 7.207 0 10-6.653-12.786 7.207 7.207 0 006.653 12.786zM21.609 469.697a7.205 7.205 0 004.52-9.119 7.205 7.205 0 00-9.119-4.52 7.202 7.202 0 00-4.516 9.123 7.203 7.203 0 009.115 4.516zM-10.143 478.178a7.207 7.207 0 106.402-12.914 7.207 7.207 0 00-6.402 12.914zM105.598 415.313a7.209 7.209 0 004.517-9.123 7.202 7.202 0 00-9.119-4.52 7.204 7.204 0 00-4.52 9.119 7.205 7.205 0 009.122 4.524zM79.346 424.16a7.206 7.206 0 004.52-9.12 7.212 7.212 0 00-9.12-4.52 7.205 7.205 0 00-4.52 9.119 7.21 7.21 0 009.12 4.521zM53.094 433.007a7.208 7.208 0 004.52-9.119 7.207 7.207 0 00-9.123-4.516 7.198 7.198 0 00-4.52 9.119 7.207 7.207 0 009.123 4.516zM26.85 441.861a7.208 7.208 0 004.52-9.119 7.205 7.205 0 00-9.123-4.516 7.2 7.2 0 00-3.116 11.546 7.196 7.196 0 007.718 2.089zM.594 450.704a7.2 7.2 0 00.892-13.27 7.202 7.202 0 00-5.495-.372 7.206 7.206 0 00-4.52 9.119 7.208 7.208 0 009.123 4.523z" fill="#FFBE4D"/><path d="M-28.798 647.56a7.068 7.068 0 01-2.306-5.269 51.496 51.496 0 0115.43-36.548 51.486 51.486 0 0136.755-14.934 51.894 51.894 0 0151.486 52.188 7.061 7.061 0 01-4.42 6.489 7.061 7.061 0 01-7.687-1.6 7.06 7.06 0 01-2.025-5.015 37.492 37.492 0 00-10.86-26.706 37.455 37.455 0 00-26.59-11.226 37.455 37.455 0 00-26.737 10.862 37.492 37.492 0 00-11.222 26.585 7.063 7.063 0 01-7.129 7.003 7.022 7.022 0 01-4.695-1.829z" fill="#BDEBE6"/><path d="M30.85 142.031a7.035 7.035 0 015.526-1.579 51.478 51.478 0 0134.174 20.159 51.48 51.48 0 019.897 38.418 51.884 51.884 0 01-58.58 44.068 7.063 7.063 0 01-3.255-12.639 7.071 7.071 0 015.237-1.35 37.457 37.457 0 0027.927-7.207 37.501 37.501 0 0014.678-24.866 37.499 37.499 0 00-7.22-27.93 37.497 37.497 0 00-24.865-14.678 7.065 7.065 0 01-6.01-7.982 7.065 7.065 0 012.491-4.414z" fill="#937AB9"/><path d="M93.016 860.398a33.104 33.104 0 01-10.777-25.137 22.205 22.205 0 00-7.22-16.893 22.232 22.232 0 00-17.485-5.659 33.083 33.083 0 01-26.008-8.444 33.099 33.099 0 01-10.778-25.137 22.202 22.202 0 00-7.22-16.893 22.218 22.218 0 00-17.485-5.659 5.438 5.438 0 01-6.007-4.793 5.433 5.433 0 014.792-6.008 33.115 33.115 0 0126.017 8.444 33.075 33.075 0 0110.77 25.137 22.238 22.238 0 007.224 16.898 22.221 22.221 0 0017.48 5.655 33.1 33.1 0 0126.016 8.443 33.075 33.075 0 0110.77 25.138 22.228 22.228 0 0024.705 22.552 33.08 33.08 0 0126.014 8.442 33.09 33.09 0 0110.772 25.139 5.437 5.437 0 01-10.515 1.878 5.446 5.446 0 01-.352-2.106 22.207 22.207 0 00-7.233-16.884 22.209 22.209 0 00-17.471-5.669 33.085 33.085 0 01-26.009-8.444z" fill="#FFBE4D"/><path d="M72.957 882.374a33.117 33.117 0 01-10.778-25.137 22.223 22.223 0 00-7.22-16.894 22.249 22.249 0 00-17.484-5.659 33.082 33.082 0 01-26.009-8.444A33.104 33.104 0 01.69 801.103a22.219 22.219 0 00-7.22-16.893 22.235 22.235 0 00-17.485-5.659 5.434 5.434 0 11-1.215-10.8 33.11 33.11 0 0126.013 8.447 33.102 33.102 0 0110.773 25.134 22.244 22.244 0 007.225 16.897 22.221 22.221 0 0017.48 5.655 33.109 33.109 0 0126.012 8.448 33.084 33.084 0 0110.774 25.133 22.225 22.225 0 0015.357 21.604c3.013.979 6.2 1.302 9.347.948a33.122 33.122 0 0113.919 1.411 33.114 33.114 0 0120.197 18.438 33.095 33.095 0 012.67 13.732 5.444 5.444 0 01-1.651 3.848 5.44 5.44 0 01-5.982 1.068 5.453 5.453 0 01-1.745-1.23 5.446 5.446 0 01-1.488-3.914 22.238 22.238 0 00-7.237-16.88 22.228 22.228 0 00-17.468-5.672 33.099 33.099 0 01-26.008-8.444z" fill="#FFBE4D"/><path d="M52.906 904.337a33.098 33.098 0 01-10.788-25.125 22.223 22.223 0 00-7.221-16.894 22.232 22.232 0 00-17.484-5.658 33.07 33.07 0 01-25.998-8.457 33.079 33.079 0 01-10.777-25.136 22.219 22.219 0 00-7.22-16.894 22.235 22.235 0 00-17.485-5.659 5.434 5.434 0 11-1.215-10.8 33.109 33.109 0 0126.013 8.448 33.086 33.086 0 0110.773 25.133 22.244 22.244 0 007.225 16.897 22.23 22.23 0 0017.48 5.655 33.11 33.11 0 0126.012 8.448 33.093 33.093 0 0110.774 25.133 22.225 22.225 0 0015.357 21.605c3.013.978 6.2 1.301 9.347.947a33.107 33.107 0 0134.115 19.849 33.112 33.112 0 012.672 13.732 5.434 5.434 0 01-10.867-.228 22.227 22.227 0 00-24.704-22.552 33.085 33.085 0 01-26.009-8.444z" fill="#FFBE4D"/><path d="M144.532 705.254l-37.415 13.801 13.802 37.415 37.415-13.801-13.802-37.415z" fill="#937AB9"/><path d="M234.156 540.051a7.339 7.339 0 01-2.236-3.911 7.37 7.37 0 012.84-7.481l118.128-86.856a7.36 7.36 0 013.425-1.362 7.358 7.358 0 016.627 2.649 7.381 7.381 0 011.546 3.347l21.269 117.138a7.37 7.37 0 01-2.139 6.591 7.364 7.364 0 01-6.691 1.905l-139.39-30.289a7.373 7.373 0 01-3.379-1.731zm117.958-79.36l-95.442 70.171 112.604 24.462-17.162-94.633z" fill="#FDBFBC"/><path d="M189.731 400.936l-6.365-95.151 15.836-1.056 6.36 95.148-15.831 1.059zm-1.537-90.927l5.76 86.099 6.774-.439-5.75-86.112-6.784.452z" fill="#BDEBE6"/><path d="M30.85 142.031a7.035 7.035 0 015.526-1.579 51.478 51.478 0 0134.174 20.159 51.48 51.48 0 019.897 38.418 51.884 51.884 0 01-58.58 44.068 7.063 7.063 0 01-3.255-12.639 7.071 7.071 0 015.237-1.35 37.457 37.457 0 0027.927-7.207 37.501 37.501 0 0014.678-24.866 37.499 37.499 0 00-7.22-27.93 37.497 37.497 0 00-24.865-14.678 7.065 7.065 0 01-6.01-7.982 7.065 7.065 0 012.491-4.414z" fill="#937AB9"/></svg>