<svg width="555" height="974" fill="none" xmlns="http://www.w3.org/2000/svg"><path d="M601.197 788.041l-22.012-75.674 12.594-3.66 22.009 75.671-12.591 3.663zM583.83 714.92l19.92 68.475 5.389-1.556-19.912-68.487-5.397 1.568z" fill="#BDEBE6"/><path d="M427.037 607.239a5.815 5.815 0 014.18-2.254 42.555 42.555 0 0131.16 10.211 42.54 42.54 0 0114.802 29.254 42.877 42.877 0 01-39.469 45.96 5.841 5.841 0 01-4.869-9.625 5.831 5.831 0 013.988-2.018 30.952 30.952 0 0021.264-10.771 30.982 30.982 0 007.437-22.674 30.997 30.997 0 00-10.78-21.264 30.995 30.995 0 00-22.674-7.437 5.84 5.84 0 01-6.267-5.377 5.837 5.837 0 011.228-4.005z" fill="#937AB9"/><path d="M225.314 640.488a6.067 6.067 0 01-2.498-2.76 6.099 6.099 0 01.966-6.542l79.953-91.053a6.092 6.092 0 015.567-1.998 6.107 6.107 0 014.627 3.662l37.924 90.792a6.103 6.103 0 01-.549 5.72 6.08 6.08 0 01-5.063 2.725l-117.883.273a6.106 6.106 0 01-3.044-.819zm81.138-84.976l-64.593 73.566 95.229-.226-30.636-73.34z" fill="#FDBFBC"/><path d="M562.429 410.575l-51.186-8.149 58.206-32.036-7.02 40.185zM601.197 788.041l-22.012-75.674 12.594-3.66 22.009 75.671-12.591 3.663zM583.83 714.92l19.92 68.475 5.389-1.556-19.912-68.487-5.397 1.568z" fill="#BDEBE6"/><path d="M427.037 607.239a5.815 5.815 0 014.18-2.254 42.555 42.555 0 0131.16 10.211 42.54 42.54 0 0114.802 29.254 42.877 42.877 0 01-39.469 45.96 5.841 5.841 0 01-4.869-9.625 5.831 5.831 0 013.988-2.018 30.952 30.952 0 0021.264-10.771 30.982 30.982 0 007.437-22.674 30.997 30.997 0 00-10.78-21.264 30.995 30.995 0 00-22.674-7.437 5.84 5.84 0 01-6.267-5.377 5.837 5.837 0 011.228-4.005z" fill="#937AB9"/><path d="M501.303 923.954c-16.71 17.934-15.718 46.018 2.216 62.729 17.934 16.707 46.018 15.717 62.728-2.216 16.71-17.934 15.718-46.018-2.215-62.728-17.934-16.71-46.018-15.718-62.729 2.215z" fill="#E89C38"/><path d="M498.983 961.184a5.959 5.959 0 00-.351 4.538 5.96 5.96 0 002.957 3.46 5.958 5.958 0 007.997-2.611 5.947 5.947 0 00-10.603-5.387zM509.358 940.778a5.955 5.955 0 004.845 8.626 5.952 5.952 0 005.763-3.234 5.95 5.95 0 00-10.608-5.392zM519.738 920.373a5.952 5.952 0 00-.352 4.539c.243.743.629 1.43 1.137 2.024a5.955 5.955 0 009.823-1.172 5.954 5.954 0 00-2.606-7.998 5.96 5.96 0 00-8.002 2.607zM530.117 899.962a5.954 5.954 0 002.606 7.998 5.951 5.951 0 004.537.35 5.951 5.951 0 003.46-2.956 5.882 5.882 0 00.635-2.391 73.38 73.38 0 00-.938-3.522 5.918 5.918 0 00-2.321-2.093 5.958 5.958 0 00-7.979 2.614zM530.379 957.63a5.951 5.951 0 00-4.537-.35 5.96 5.96 0 00-3.46 2.956 5.956 5.956 0 002.61 7.997c.215.107.436.202.662.283a73.989 73.989 0 006.715-9.257 5.879 5.879 0 00-1.981-1.638l-.009.009zM540.759 937.225a5.956 5.956 0 00-7.998 2.605 5.963 5.963 0 00-.35 4.538 5.96 5.96 0 002.956 3.46 5.942 5.942 0 002.495.64 74.608 74.608 0 003.526-10.884 6.368 6.368 0 00-.62-.369l-.009.01zM543.278 925.087c.134-2.054.174-4.11.138-6.158a5.93 5.93 0 00-.929 3.345c.025.989.297 1.956.791 2.813zM415.654 963.512a5.953 5.953 0 00-6.561.775 73.772 73.772 0 007.779 9.015 5.87 5.87 0 001.388-1.784 5.95 5.95 0 00-2.606-8.006zM428.639 951.094a5.956 5.956 0 00-2.605-7.997 5.954 5.954 0 00-7.998 2.606 5.958 5.958 0 002.606 7.997 5.95 5.95 0 007.997-2.606zM439.02 930.688a5.954 5.954 0 00-2.606-7.997 5.959 5.959 0 00-4.538-.351 5.96 5.96 0 00-3.46 2.957 5.958 5.958 0 002.606 7.997 5.954 5.954 0 007.998-2.606zM449.4 910.282a5.958 5.958 0 00-2.611-7.997 5.95 5.95 0 00-7.997 2.606 5.951 5.951 0 00-.35 4.537 5.951 5.951 0 002.956 3.46 5.96 5.96 0 004.54.353 5.96 5.96 0 003.462-2.959zM459.774 889.872a5.936 5.936 0 00-.782-6.562 5.946 5.946 0 10.782 6.562zM470.153 869.458a5.959 5.959 0 00-2.605-7.998 5.956 5.956 0 00-7.998 2.611 5.96 5.96 0 00-.35 4.537 5.96 5.96 0 002.956 3.46 5.956 5.956 0 007.997-2.61zM472.528 851.666a5.95 5.95 0 007.997-2.606 5.886 5.886 0 00.62-2.174 73.898 73.898 0 00-11.863-.974 5.955 5.955 0 003.246 5.754zM441.655 970.552a5.95 5.95 0 00-2.606-7.997 5.956 5.956 0 00-7.998 2.606 5.958 5.958 0 002.606 7.997 5.954 5.954 0 007.998-2.606zM441.422 944.751a5.956 5.956 0 002.605 7.997 5.956 5.956 0 007.998-2.61 5.95 5.95 0 00-2.611-7.997 5.942 5.942 0 00-7.992 2.61zM451.797 924.345a5.947 5.947 0 002.61 7.997 5.963 5.963 0 002.234.629 5.963 5.963 0 004.329-1.411 5.95 5.95 0 00-1.171-9.821 5.955 5.955 0 00-8.002 2.606zM462.177 903.939a5.948 5.948 0 002.61 7.997 5.95 5.95 0 007.997-2.605 5.959 5.959 0 00-2.605-7.998 5.957 5.957 0 00-8.002 2.606zM483.17 888.929a5.963 5.963 0 00.35-4.538 5.96 5.96 0 00-2.956-3.46 5.952 5.952 0 00-7.998 2.611 5.954 5.954 0 002.606 7.997 5.956 5.956 0 007.998-2.61zM493.526 868.524a5.954 5.954 0 00-2.61-7.997 5.95 5.95 0 00-7.998 2.606 5.958 5.958 0 002.606 7.997 5.955 5.955 0 008.002-2.606zM402.615 912.168a5.952 5.952 0 00-2.611-7.997 5.894 5.894 0 00-3.423-.602 74.035 74.035 0 00-1.721 11.327 5.952 5.952 0 007.755-2.728zM404.984 894.373a5.956 5.956 0 007.997-2.61 5.945 5.945 0 00.352-4.538 5.945 5.945 0 00-6.313-4.07 5.95 5.95 0 00-3.14 1.33c-.38.692-.765 1.375-1.127 2.08-.361.705-.682 1.426-1.016 2.139a5.951 5.951 0 003.247 5.669zM423.37 871.357a5.943 5.943 0 00-2.377-7.866 73.789 73.789 0 00-8.142 8.062 5.939 5.939 0 002.504 2.415 5.97 5.97 0 004.549.357 5.972 5.972 0 003.466-2.968zM402.64 944.035a5.911 5.911 0 00-4.205-.449 75.042 75.042 0 004.572 10.849 5.908 5.908 0 002.243-2.398 5.948 5.948 0 00-2.61-8.002zM415.625 931.631a5.952 5.952 0 00-2.606-7.997 5.954 5.954 0 00-7.997 2.61 5.952 5.952 0 002.611 7.997 5.948 5.948 0 007.992-2.61zM426.005 911.226a5.963 5.963 0 00.35-4.538 5.96 5.96 0 00-2.956-3.46 5.954 5.954 0 00-7.998 2.611 5.954 5.954 0 002.606 7.997 5.956 5.956 0 007.998-2.61zM436.385 890.819a5.951 5.951 0 00.35-4.537 5.951 5.951 0 00-2.956-3.46 5.95 5.95 0 00-7.997 2.606 5.956 5.956 0 002.606 7.997 5.951 5.951 0 004.537.35 5.951 5.951 0 003.46-2.956zM446.764 870.413a5.954 5.954 0 00-2.61-7.997 5.954 5.954 0 00-7.998 2.606 5.954 5.954 0 002.606 7.998 5.955 5.955 0 008.002-2.607zM457.139 850.008c.506-.996.72-2.114.619-3.227a74.656 74.656 0 00-11.459 2.697 5.92 5.92 0 002.838 3.136 5.95 5.95 0 008.002-2.606zM454.432 964.214a5.947 5.947 0 007.147 8.347 5.948 5.948 0 003.46-2.956 5.954 5.954 0 00-2.61-7.997 5.95 5.95 0 00-7.997 2.606zM464.812 943.799a5.954 5.954 0 002.61 7.997 5.95 5.95 0 007.998-2.606 5.955 5.955 0 00-2.606-7.997 5.955 5.955 0 00-8.002 2.606zM474.838 924.248a5.955 5.955 0 1011.321 3.7 5.955 5.955 0 00-11.321-3.7zM485.571 902.992a5.951 5.951 0 00-.35 4.537 5.951 5.951 0 002.956 3.46 5.951 5.951 0 004.537.35 5.951 5.951 0 003.46-2.956 5.947 5.947 0 00-10.603-5.391zM499.409 879.621a5.956 5.956 0 103.69 11.325 5.956 5.956 0 00-3.69-11.325zM506.335 862.179a5.954 5.954 0 002.611 7.998 5.956 5.956 0 004.539.35 5.956 5.956 0 003.458-2.961 5.91 5.91 0 00.551-3.731 73.546 73.546 0 00-6.383-4.889 5.956 5.956 0 00-4.776 3.233zM477.827 963.266a5.956 5.956 0 002.606 7.997 5.958 5.958 0 007.997-2.606 5.95 5.95 0 00-2.606-7.997 5.951 5.951 0 00-4.537-.35 5.948 5.948 0 00-3.46 2.956zM488.206 942.86a5.954 5.954 0 002.606 7.998 5.96 5.96 0 007.998-2.611 5.954 5.954 0 00-2.606-7.997 5.956 5.956 0 00-7.998 2.61zM498.576 922.455a5.958 5.958 0 002.606 7.997 5.956 5.956 0 007.998-2.61 5.955 5.955 0 00-2.606-7.989 5.953 5.953 0 00-4.538-.355 5.951 5.951 0 00-3.46 2.957zM508.961 902.049a5.954 5.954 0 002.611 7.997 5.954 5.954 0 007.997-2.606 5.954 5.954 0 00-2.606-7.998 5.96 5.96 0 00-8.002 2.607zM519.341 881.652a5.95 5.95 0 002.606 7.997 5.956 5.956 0 007.997-2.605 5.954 5.954 0 00-2.606-7.998 5.951 5.951 0 00-4.537-.35 5.951 5.951 0 00-3.46 2.956z" fill="#FFBE4D"/><path d="M412.455 768.845a5.848 5.848 0 014.408 1.777 42.551 42.551 0 0112.03 30.499 42.562 42.562 0 01-13.059 30.073 42.885 42.885 0 01-60.576-1.029 5.833 5.833 0 01-1.144-6.387 5.844 5.844 0 015.463-3.501 5.845 5.845 0 014.095 1.789 31.003 31.003 0 009.981 6.927 31.015 31.015 0 0011.877 2.557 30.964 30.964 0 0022.188-8.752 30.95 30.95 0 009.501-21.876 30.98 30.98 0 00-8.751-22.184 5.833 5.833 0 01-1.145-6.387 5.86 5.86 0 011.302-1.87 5.807 5.807 0 013.83-1.636z" fill="#BDEBE6"/><path d="M276.769 835.038l14.104-29.787-29.787-14.104-14.104 29.787 29.787 14.104z" fill="#937AB9"/><path d="M420.169 487.681a27.358 27.358 0 01-13.157-18.378 18.347 18.347 0 00-8.824-12.356 18.372 18.372 0 00-15.116-1.466 27.36 27.36 0 01-22.491-2.203 27.362 27.362 0 01-13.157-18.379 18.364 18.364 0 00-8.825-12.355 18.369 18.369 0 00-15.116-1.467 4.49 4.49 0 01-5.478-6.233 4.49 4.49 0 012.582-2.269 27.368 27.368 0 0122.497 2.201 27.338 27.338 0 0113.151 18.38 18.38 18.38 0 008.828 12.358 18.377 18.377 0 0015.112 1.464 27.354 27.354 0 0131.061 9.969 27.313 27.313 0 014.587 10.613 18.384 18.384 0 008.829 12.357 18.367 18.367 0 0015.112 1.465 27.362 27.362 0 0122.497 2.201 27.333 27.333 0 0113.151 18.38 4.494 4.494 0 01-6.905 4.603 4.491 4.491 0 01-1.906-2.86 18.364 18.364 0 00-8.825-12.355 18.369 18.369 0 00-15.116-1.467 27.34 27.34 0 01-22.491-2.203z" fill="#FFBE4D"/><path d="M407.874 508.976a27.358 27.358 0 01-13.157-18.378 18.368 18.368 0 00-8.824-12.355 18.377 18.377 0 00-15.116-1.467 27.344 27.344 0 01-31.056-9.97 27.366 27.366 0 01-4.593-10.611 18.364 18.364 0 00-8.824-12.356 18.388 18.388 0 00-7.399-2.368 18.394 18.394 0 00-7.717.902 4.49 4.49 0 01-5.699-2.803 4.492 4.492 0 012.803-5.7 27.35 27.35 0 0135.648 20.582 18.37 18.37 0 008.828 12.357 18.362 18.362 0 0015.112 1.465 27.37 27.37 0 0122.495 2.205 27.348 27.348 0 0113.153 18.376 18.395 18.395 0 003.078 7.134 18.393 18.393 0 005.751 5.224 18.367 18.367 0 0015.112 1.464 27.355 27.355 0 0131.058 9.971 27.34 27.34 0 014.59 10.611 4.49 4.49 0 01-3.534 5.277 4.494 4.494 0 01-5.277-3.534 18.366 18.366 0 00-8.825-12.356 18.383 18.383 0 00-15.116-1.466 27.354 27.354 0 01-22.491-2.204z" fill="#FFBE4D"/><path d="M395.586 530.26a27.347 27.347 0 01-13.158-18.378 18.351 18.351 0 00-8.824-12.355 18.367 18.367 0 00-15.116-1.467 27.327 27.327 0 01-22.491-2.203 27.36 27.36 0 01-13.157-18.378 18.366 18.366 0 00-8.825-12.356 18.383 18.383 0 00-15.116-1.466 4.49 4.49 0 01-5.699-2.803 4.496 4.496 0 01.221-3.431 4.496 4.496 0 012.582-2.269 27.355 27.355 0 0131.058 9.971 27.34 27.34 0 014.59 10.611 18.384 18.384 0 008.828 12.357 18.367 18.367 0 0015.113 1.465 27.364 27.364 0 0122.494 2.205 27.352 27.352 0 0113.154 18.376 18.37 18.37 0 008.828 12.358 18.377 18.377 0 0015.112 1.464 27.354 27.354 0 0122.495 2.206 27.348 27.348 0 0113.153 18.376 4.49 4.49 0 11-8.811 1.743 18.366 18.366 0 00-8.824-12.356 18.371 18.371 0 00-15.116-1.466 27.345 27.345 0 01-22.491-2.204z" fill="#FFBE4D"/><path d="M642.836 517.597l-112.91 8.331 8.331 112.91 112.911-8.331-8.332-112.91zM477.277 204.075a6.065 6.065 0 01-2.498-2.759 6.087 6.087 0 01-.481-3.414 6.087 6.087 0 011.447-3.128l79.953-91.054a6.086 6.086 0 0110.183 1.684l37.934 90.773a6.098 6.098 0 01-5.611 8.444l-117.883.273a6.095 6.095 0 01-3.044-.819zm81.138-84.976l-64.593 73.566 95.229-.226-30.636-73.34zM225.314 640.488a6.067 6.067 0 01-2.498-2.76 6.099 6.099 0 01.966-6.542l79.953-91.053a6.092 6.092 0 015.567-1.998 6.107 6.107 0 014.627 3.662l37.924 90.792a6.103 6.103 0 01-.549 5.72 6.08 6.08 0 01-5.063 2.725l-117.883.273a6.106 6.106 0 01-3.044-.819zm81.138-84.976l-64.593 73.566 95.229-.226-30.636-73.34z" fill="#FDBFBC"/><path d="M517.591 293.764l26.413-7.077a3.981 3.981 0 002.438-1.87 3.966 3.966 0 00.398-3.043 4.016 4.016 0 00-4.917-2.838l-26.381 7.069-7.069-26.382a4.016 4.016 0 00-4.917-2.838 3.979 3.979 0 00-2.436 1.866 3.984 3.984 0 00-.4 3.046l7.058 26.401-26.382 7.069a3.98 3.98 0 00-2.438 1.87 3.988 3.988 0 00-.4 3.047 3.985 3.985 0 001.872 2.434 4.002 4.002 0 003.044.404l26.382-7.069 7.069 26.382a3.985 3.985 0 001.872 2.434 3.985 3.985 0 003.044.404 3.984 3.984 0 002.439-1.87 3.988 3.988 0 00.4-3.046l-7.089-26.393zM420.169 487.681a27.358 27.358 0 01-13.157-18.378 18.347 18.347 0 00-8.824-12.356 18.372 18.372 0 00-15.116-1.466 27.36 27.36 0 01-22.491-2.203 27.362 27.362 0 01-13.157-18.379 18.364 18.364 0 00-8.825-12.355 18.369 18.369 0 00-15.116-1.467 4.49 4.49 0 01-5.478-6.233 4.49 4.49 0 012.582-2.269 27.368 27.368 0 0122.497 2.201 27.338 27.338 0 0113.151 18.38 18.38 18.38 0 008.828 12.358 18.377 18.377 0 0015.112 1.464 27.354 27.354 0 0131.061 9.969 27.313 27.313 0 014.587 10.613 18.384 18.384 0 008.829 12.357 18.367 18.367 0 0015.112 1.465 27.362 27.362 0 0122.497 2.201 27.333 27.333 0 0113.151 18.38 4.494 4.494 0 01-6.905 4.603 4.491 4.491 0 01-1.906-2.86 18.364 18.364 0 00-8.825-12.355 18.369 18.369 0 00-15.116-1.467 27.34 27.34 0 01-22.491-2.203z" fill="#FFBE4D"/><path d="M407.874 508.976a27.358 27.358 0 01-13.157-18.378 18.368 18.368 0 00-8.824-12.355 18.377 18.377 0 00-15.116-1.467 27.344 27.344 0 01-31.056-9.97 27.366 27.366 0 01-4.593-10.611 18.364 18.364 0 00-8.824-12.356 18.388 18.388 0 00-7.399-2.368 18.394 18.394 0 00-7.717.902 4.49 4.49 0 01-5.699-2.803 4.492 4.492 0 012.803-5.7 27.35 27.35 0 0135.648 20.582 18.37 18.37 0 008.828 12.357 18.362 18.362 0 0015.112 1.465 27.37 27.37 0 0122.495 2.205 27.348 27.348 0 0113.153 18.376 18.395 18.395 0 003.078 7.134 18.393 18.393 0 005.751 5.224 18.367 18.367 0 0015.112 1.464 27.355 27.355 0 0131.058 9.971 27.34 27.34 0 014.59 10.611 4.49 4.49 0 01-3.534 5.277 4.494 4.494 0 01-5.277-3.534 18.366 18.366 0 00-8.825-12.356 18.383 18.383 0 00-15.116-1.466 27.354 27.354 0 01-22.491-2.204z" fill="#FFBE4D"/><path d="M395.586 530.26a27.347 27.347 0 01-13.158-18.378 18.351 18.351 0 00-8.824-12.355 18.367 18.367 0 00-15.116-1.467 27.327 27.327 0 01-22.491-2.203 27.36 27.36 0 01-13.157-18.378 18.366 18.366 0 00-8.825-12.356 18.383 18.383 0 00-15.116-1.466 4.49 4.49 0 01-5.699-2.803 4.496 4.496 0 01.221-3.431 4.496 4.496 0 012.582-2.269 27.355 27.355 0 0131.058 9.971 27.34 27.34 0 014.59 10.611 18.384 18.384 0 008.828 12.357 18.367 18.367 0 0015.113 1.465 27.364 27.364 0 0122.494 2.205 27.352 27.352 0 0113.154 18.376 18.37 18.37 0 008.828 12.358 18.377 18.377 0 0015.112 1.464 27.354 27.354 0 0122.495 2.206 27.348 27.348 0 0113.153 18.376 4.49 4.49 0 11-8.811 1.743 18.366 18.366 0 00-8.824-12.356 18.371 18.371 0 00-15.116-1.466 27.345 27.345 0 01-22.491-2.204z" fill="#FFBE4D"/><path d="M477.277 204.075a6.065 6.065 0 01-2.498-2.759 6.087 6.087 0 01-.481-3.414 6.087 6.087 0 011.447-3.128l79.953-91.054a6.086 6.086 0 0110.183 1.684l37.934 90.773a6.098 6.098 0 01-5.611 8.444l-117.883.273a6.095 6.095 0 01-3.044-.819zm81.138-84.976l-64.593 73.566 95.229-.226-30.636-73.34z" fill="#FDBFBC"/></svg>