<svg width="143" height="46" fill="none" xmlns="http://www.w3.org/2000/svg"><path d="M65.82 29.72c0-.84-.31-1.52-.94-2.05-.6-.52-1.38-1-2.33-1.41a49.2 49.2 0 00-3.03-1.34 17.95 17.95 0 01-3.03-1.7 9.27 9.27 0 01-2.32-2.51c-.6-1-.9-2.27-.9-3.82 0-1.34.22-2.5.66-3.47.45-1 1.08-1.82 1.9-2.48a8.4 8.4 0 012.95-1.45C59.9 9.17 61.16 9 62.55 9c1.6 0 3.11.15 4.53.44 1.42.26 2.59.65 3.5 1.18l-1.69 4.52a9.13 9.13 0 00-2.6-.98c-1.15-.31-2.4-.47-3.74-.47-1.26 0-2.23.25-2.9.75a2.4 2.4 0 00-1 2c0 .8.3 1.45.91 1.97.63.53 1.4 1.01 2.33 1.46.94.45 1.95.9 3.03 1.38a14.9 14.9 0 013.03 1.73 8.07 8.07 0 012.32 2.48c.63.97.95 2.2.95 3.66 0 1.47-.25 2.74-.75 3.82a6.97 6.97 0 01-2.05 2.64 8.45 8.45 0 01-3.19 1.57c-1.23.34-2.6.51-4.1.51-1.96 0-3.7-.18-5.19-.55a15.9 15.9 0 01-3.3-1.1l1.73-4.6a11.52 11.52 0 002.67 1.02 12.69 12.69 0 003.82.55c1.6 0 2.82-.26 3.66-.79a2.74 2.74 0 001.3-2.48zM72.64 17.44h2.72v-3.7l5.12-1.46v5.16h4.8v4.33h-4.8v7.56a8 8 0 00.4 2.95c.28.58.8.87 1.57.87.52 0 .97-.06 1.33-.16.4-.1.83-.26 1.3-.47l.91 3.93a13 13 0 01-5.35 1.22c-1.82 0-3.15-.46-4.02-1.37-.84-.95-1.26-2.48-1.26-4.61v-9.92h-2.72v-4.33zM88.3 18.58a16.2 16.2 0 013.74-1.1c1.44-.3 2.95-.44 4.53-.44 1.36 0 2.5.18 3.42.52a4.9 4.9 0 013.3 3.54c.24.84.36 1.78.36 2.83 0 1.16-.04 2.33-.12 3.5a45.17 45.17 0 00-.04 6.73c.08 1.06.28 2.06.6 3H99.9l-.83-2.71h-.2a7.14 7.14 0 01-2.2 2.12c-.92.58-2.1.87-3.58.87-.92 0-1.74-.13-2.48-.4a5.77 5.77 0 01-1.89-1.18 5.65 5.65 0 01-1.65-4.17c0-1.2.26-2.22.78-3.03a5.81 5.81 0 012.33-2c1.02-.53 2.23-.89 3.62-1.07 1.42-.21 3-.28 4.72-.2.19-1.47.08-2.52-.31-3.15-.4-.65-1.27-.98-2.64-.98-1.02 0-2.11.1-3.27.31-1.13.21-2.06.49-2.8.83l-1.21-3.82zm6.5 14.65c1.02 0 1.83-.23 2.43-.67.6-.48 1.05-.98 1.34-1.5V28.5c-.81-.08-1.6-.1-2.36-.04a8.5 8.5 0 00-1.97.36c-.57.18-1.03.44-1.38.78-.34.34-.5.78-.5 1.3 0 .74.2 1.31.62 1.73.45.4 1.05.6 1.81.6zM121.88 35.9a8.27 8.27 0 01-2.87 1.3c-1.1.32-2.25.47-3.43.47a9.71 9.71 0 01-4.01-.74 6.91 6.91 0 01-2.64-2.1 9.1 9.1 0 01-1.5-3.3c-.28-1.28-.43-2.7-.43-4.25 0-3.33.75-5.9 2.25-7.68 1.5-1.8 3.67-2.71 6.53-2.71 1.44 0 2.6.12 3.47.35.89.24 1.69.54 2.4.9l-1.22 4.18c-.6-.29-1.21-.51-1.82-.67a7.66 7.66 0 00-2-.24c-1.42 0-2.5.48-3.23 1.42-.74.92-1.1 2.4-1.1 4.45 0 .84.09 1.61.27 2.32.19.71.46 1.33.83 1.85.37.53.84.95 1.42 1.26.6.3 1.3.44 2.08.44.87 0 1.6-.1 2.2-.32a8.5 8.5 0 001.62-.83l1.18 3.9zM131.47 28.97h-1.37v8.15h-5.12V9.56h5.12v16.26l1.18-.55 4.48-7.83h5.64l-4.73 7.48-2 1.5 2.16 1.53 5.31 9.17h-5.86l-4.8-8.15z" fill="#504A62"/><rect opacity=".5" width="28.76" height="28.76" rx="5" transform="rotate(135 16.04 18.78)" fill="#FFBE4D"/><rect opacity=".5" x="44.63" y="24.68" width="28.76" height="28.76" rx="5" transform="rotate(135 44.63 24.68)" fill="#E89C38"/></svg>